# xmcd
#
# Track frame offsets:
#	150
#	15721
#	36173
#	53712
#	67397
#	85348
#	104230
#	137067
#
# Disc length: 2085 seconds
#
# Revision: 1
# Processed by: cddbd v1.5.2PL0 Copyright (c) Steve Scherf et al.
# Submitted via: EasyCDDAExtractor 6.2.0.3
#
DISCID=75082308
DTITLE=Ann Klein and Band - CD2: live at the lakeside lounge
DYEAR=2006
DGENRE=Blues
TTITLE0=Happy New Year
TTITLE1=Hank Williams
TTITLE2=Goodbye Charade
TTITLE3=No Money Back Guarantee
TTITLE4=Little White Lies
TTITLE5=Daze Dream
TTITLE6=Fun For The Rich
TTITLE7=Silent Day, Silent Night
EXTD=
EXTT0=
EXTT1=
EXTT2=
EXTT3=
EXTT4=
EXTT5=
EXTT6=
EXTT7=
PLAYORDER=
